<svg width="78" height="82" viewBox="0 0 78 82" fill="none" xmlns="http://www.w3.org/2000/svg">
<path d="M0 59.9309C0 40.8697 10.1688 27.3703 29.905 26.6673C45.6032 27.1554 59.576 33.9005 59.576 51.1697C59.576 57.1227 59.1219 70.5819 55.6821 75.3116C50.6204 82.2714 44.5657 80.9577 36.7969 80.9577C22.0791 80.9577 0 78.2712 0 59.9309Z" fill="#CE9FE1"/>
<path d="M17.957 33.2924C17.957 14.2312 28.1258 0.731766 47.8621 0.0287993C63.5602 0.516894 77.533 7.26202 77.533 24.5313C77.533 30.4842 77.079 43.9434 73.6391 48.6731C68.5775 55.6329 62.5227 54.3192 54.7539 54.3192C40.0362 54.3192 17.957 51.6327 17.957 33.2924Z" fill="#6C3084" fill-opacity="0.7"/>
</svg>
