<svg width="403" height="50" viewBox="0 0 403 50" fill="none" xmlns="http://www.w3.org/2000/svg">
<path d="M7.992 5.73599V39H0.119995V5.73599H7.992Z" fill="#292929"/>
<path d="M23.0145 12.696C24.8385 12.696 26.5505 12.968 28.1505 13.512C29.7505 14.056 31.1585 14.824 32.3745 15.816L29.5905 20.088C27.5105 18.776 25.4145 18.12 23.3025 18.12C22.3105 18.12 21.5425 18.296 20.9985 18.648C20.4865 18.968 20.2305 19.432 20.2305 20.04C20.2305 20.52 20.3425 20.92 20.5665 21.24C20.8225 21.528 21.3185 21.832 22.0545 22.152C22.7905 22.472 23.9265 22.856 25.4625 23.304C28.1185 24.072 30.0865 25.08 31.3665 26.328C32.6785 27.544 33.3345 29.24 33.3345 31.416C33.3345 33.144 32.8385 34.648 31.8465 35.928C30.8545 37.176 29.4945 38.136 27.7665 38.808C26.0385 39.48 24.1185 39.816 22.0065 39.816C19.8625 39.816 17.8625 39.48 16.0065 38.808C14.1825 38.136 12.6305 37.208 11.3505 36.024L15.0465 31.896C17.1905 33.56 19.4465 34.392 21.8145 34.392C22.9665 34.392 23.8625 34.184 24.5025 33.768C25.1745 33.352 25.5105 32.76 25.5105 31.992C25.5105 31.384 25.3825 30.904 25.1265 30.552C24.8705 30.2 24.3745 29.88 23.6385 29.592C22.9025 29.272 21.7345 28.888 20.1345 28.44C17.6065 27.704 15.7185 26.68 14.4705 25.368C13.2225 24.056 12.5985 22.424 12.5985 20.472C12.5985 19 13.0145 17.688 13.8465 16.536C14.7105 15.352 15.9265 14.424 17.4945 13.752C19.0945 13.048 20.9345 12.696 23.0145 12.696Z" fill="#292929"/>
<path d="M57.0289 31.608C57.0289 32.568 57.1569 33.272 57.4129 33.72C57.7009 34.168 58.1489 34.504 58.7569 34.728L57.1729 39.672C55.6049 39.544 54.3249 39.208 53.3329 38.664C52.3409 38.088 51.5729 37.192 51.0289 35.976C49.3649 38.536 46.8049 39.816 43.3489 39.816C40.8209 39.816 38.8049 39.08 37.3009 37.608C35.7969 36.136 35.0449 34.216 35.0449 31.848C35.0449 29.064 36.0689 26.936 38.1169 25.464C40.1649 23.992 43.1249 23.256 46.9969 23.256H49.5889V22.152C49.5889 20.648 49.2689 19.624 48.6289 19.08C47.9889 18.504 46.8689 18.216 45.2689 18.216C44.4369 18.216 43.4289 18.344 42.2449 18.6C41.0609 18.824 39.8449 19.144 38.5969 19.56L36.8689 14.568C38.4689 13.96 40.1009 13.496 41.7649 13.176C43.4609 12.856 45.0289 12.696 46.4689 12.696C50.1169 12.696 52.7889 13.448 54.4849 14.952C56.1809 16.456 57.0289 18.712 57.0289 21.72V31.608ZM45.5569 34.392C47.2849 34.392 48.6289 33.576 49.5889 31.944V27.432H47.7169C45.9889 27.432 44.6929 27.736 43.8289 28.344C42.9969 28.952 42.5809 29.896 42.5809 31.176C42.5809 32.2 42.8369 33 43.3489 33.576C43.8929 34.12 44.6289 34.392 45.5569 34.392Z" fill="#292929"/>
<path d="M77.5177 12.696C80.5577 12.696 82.8937 13.896 84.5257 16.296C86.1577 18.664 86.9737 21.992 86.9737 26.28C86.9737 28.904 86.5577 31.24 85.7257 33.288C84.9257 35.336 83.7578 36.936 82.2217 38.088C80.7178 39.24 78.9258 39.816 76.8457 39.816C75.4697 39.816 74.2057 39.528 73.0537 38.952C71.9337 38.376 70.9737 37.576 70.1737 36.552L69.7897 39H63.0697V3.38399L70.6537 2.56799V16.104C71.4217 15.048 72.3978 14.216 73.5817 13.608C74.7977 13 76.1097 12.696 77.5177 12.696ZM74.6377 34.296C77.6137 34.296 79.1017 31.624 79.1017 26.28C79.1017 23.24 78.7497 21.144 78.0457 19.992C77.3417 18.84 76.3177 18.264 74.9737 18.264C73.2777 18.264 71.8377 19.256 70.6537 21.24V31.848C71.1338 32.616 71.7097 33.224 72.3817 33.672C73.0857 34.088 73.8378 34.296 74.6377 34.296Z" fill="#292929"/>
<path d="M113.934 25.752C113.934 26.808 113.886 27.72 113.79 28.488H97.9984C98.2544 30.632 98.8624 32.136 99.8224 33C100.782 33.864 102.11 34.296 103.806 34.296C104.83 34.296 105.822 34.12 106.782 33.768C107.742 33.384 108.782 32.808 109.902 32.04L113.022 36.264C110.046 38.632 106.734 39.816 103.086 39.816C98.9584 39.816 95.7904 38.6 93.5824 36.168C91.3744 33.736 90.2704 30.472 90.2704 26.376C90.2704 23.784 90.7344 21.464 91.6624 19.416C92.5904 17.336 93.9504 15.704 95.7424 14.52C97.5344 13.304 99.6784 12.696 102.174 12.696C105.854 12.696 108.734 13.848 110.814 16.152C112.894 18.456 113.934 21.656 113.934 25.752ZM106.494 23.592C106.43 19.688 105.054 17.736 102.366 17.736C101.054 17.736 100.03 18.216 99.2944 19.176C98.5904 20.136 98.1584 21.72 97.9984 23.928H106.494V23.592Z" fill="#292929"/>
<path d="M124.963 39.816C122.755 39.816 121.027 39.192 119.779 37.944C118.563 36.664 117.955 34.856 117.955 32.52V3.38399L125.539 2.56799V32.232C125.539 33.288 125.971 33.816 126.835 33.816C127.283 33.816 127.699 33.736 128.083 33.576L129.571 38.952C128.195 39.528 126.659 39.816 124.963 39.816Z" fill="#292929"/>
<path d="M139.213 39.816C137.005 39.816 135.277 39.192 134.029 37.944C132.813 36.664 132.205 34.856 132.205 32.52V3.38399L139.789 2.56799V32.232C139.789 33.288 140.221 33.816 141.085 33.816C141.533 33.816 141.949 33.736 142.333 33.576L143.821 38.952C142.445 39.528 140.909 39.816 139.213 39.816Z" fill="#292929"/>
<path d="M168.684 25.752C168.684 26.808 168.636 27.72 168.54 28.488H152.748C153.004 30.632 153.612 32.136 154.572 33C155.532 33.864 156.86 34.296 158.556 34.296C159.58 34.296 160.572 34.12 161.532 33.768C162.492 33.384 163.532 32.808 164.652 32.04L167.772 36.264C164.796 38.632 161.484 39.816 157.836 39.816C153.708 39.816 150.54 38.6 148.332 36.168C146.124 33.736 145.02 30.472 145.02 26.376C145.02 23.784 145.484 21.464 146.412 19.416C147.34 17.336 148.7 15.704 150.492 14.52C152.284 13.304 154.428 12.696 156.924 12.696C160.604 12.696 163.484 13.848 165.564 16.152C167.644 18.456 168.684 21.656 168.684 25.752ZM161.244 23.592C161.18 19.688 159.804 17.736 157.116 17.736C155.804 17.736 154.78 18.216 154.044 19.176C153.34 20.136 152.908 21.72 152.748 23.928H161.244V23.592Z" fill="#292929"/>
<path d="M195.423 26.28H192.351V39H184.479V5.73599H195.375C199.919 5.73599 203.327 6.56799 205.599 8.23199C207.903 9.89599 209.055 12.44 209.055 15.864C209.055 18.008 208.543 19.8 207.519 21.24C206.495 22.648 204.879 23.848 202.671 24.84L211.119 39H202.239L195.423 26.28ZM192.351 20.856H195.663C197.423 20.856 198.735 20.456 199.599 19.656C200.495 18.856 200.943 17.592 200.943 15.864C200.943 14.264 200.463 13.096 199.503 12.36C198.575 11.624 197.135 11.256 195.183 11.256H192.351V20.856Z" fill="#292929"/>
<path d="M224.297 12.696C228.201 12.696 231.257 13.896 233.465 16.296C235.673 18.664 236.777 21.992 236.777 26.28C236.777 29 236.265 31.384 235.241 33.432C234.249 35.448 232.809 37.016 230.921 38.136C229.065 39.256 226.857 39.816 224.297 39.816C220.425 39.816 217.369 38.632 215.129 36.264C212.921 33.864 211.817 30.52 211.817 26.232C211.817 23.512 212.313 21.144 213.305 19.128C214.329 17.08 215.769 15.496 217.625 14.376C219.513 13.256 221.737 12.696 224.297 12.696ZM224.297 18.264C222.761 18.264 221.609 18.92 220.841 20.232C220.073 21.512 219.689 23.512 219.689 26.232C219.689 29.016 220.057 31.048 220.793 32.328C221.561 33.608 222.729 34.248 224.297 34.248C225.833 34.248 226.985 33.608 227.753 32.328C228.521 31.016 228.905 29 228.905 26.28C228.905 23.496 228.521 21.464 227.753 20.184C227.017 18.904 225.865 18.264 224.297 18.264Z" fill="#292929"/>
<path d="M264.137 3.38399V39H257.417L257.033 36.024C255.241 38.552 252.824 39.816 249.785 39.816C246.617 39.816 244.201 38.6 242.536 36.168C240.904 33.736 240.089 30.408 240.089 26.184C240.089 23.592 240.52 21.272 241.384 19.224C242.248 17.176 243.465 15.576 245.033 14.424C246.633 13.272 248.456 12.696 250.505 12.696C252.937 12.696 254.952 13.496 256.552 15.096V2.56799L264.137 3.38399ZM252.136 34.248C253.896 34.248 255.368 33.288 256.552 31.368V20.376C255.944 19.64 255.32 19.096 254.68 18.744C254.072 18.392 253.368 18.216 252.568 18.216C251.16 18.216 250.04 18.872 249.208 20.184C248.376 21.496 247.96 23.512 247.96 26.232C247.96 29.208 248.312 31.288 249.016 32.472C249.753 33.656 250.792 34.248 252.136 34.248Z" fill="#292929"/>
<path d="M283.894 12.792C284.822 12.792 285.67 12.904 286.438 13.128L285.238 20.472C284.278 20.248 283.51 20.136 282.934 20.136C281.43 20.136 280.278 20.664 279.478 21.72C278.71 22.744 278.102 24.296 277.654 26.376V39H270.07V13.512H276.694L277.318 18.456C277.894 16.696 278.758 15.32 279.91 14.328C281.094 13.304 282.422 12.792 283.894 12.792Z" fill="#292929"/>
<path d="M296.919 13.512V39H289.335V13.512H296.919ZM293.079 0.071991C294.391 0.071991 295.463 0.487991 296.295 1.31999C297.159 2.11999 297.591 3.14399 297.591 4.39199C297.591 5.63999 297.159 6.67999 296.295 7.51199C295.463 8.31199 294.391 8.71199 293.079 8.71199C291.767 8.71199 290.695 8.31199 289.863 7.51199C289.031 6.67999 288.615 5.63999 288.615 4.39199C288.615 3.14399 289.031 2.11999 289.863 1.31999C290.695 0.487991 291.767 0.071991 293.079 0.071991Z" fill="#292929"/>
<path d="M326.354 15C324.69 15.672 322.242 16.008 319.01 16.008C320.674 16.712 321.89 17.576 322.658 18.6C323.426 19.624 323.81 20.952 323.81 22.584C323.81 24.216 323.378 25.688 322.514 27C321.65 28.28 320.402 29.288 318.77 30.024C317.17 30.76 315.282 31.128 313.106 31.128C312.082 31.128 311.106 31.032 310.178 30.84C309.922 30.968 309.714 31.176 309.554 31.464C309.426 31.72 309.362 31.992 309.362 32.28C309.362 32.76 309.538 33.144 309.89 33.432C310.274 33.688 311.026 33.816 312.146 33.816H315.986C317.938 33.816 319.65 34.136 321.122 34.776C322.594 35.416 323.73 36.296 324.53 37.416C325.33 38.536 325.73 39.8 325.73 41.208C325.73 43.864 324.578 45.928 322.274 47.4C320.002 48.904 316.706 49.656 312.386 49.656C309.282 49.656 306.834 49.32 305.042 48.648C303.25 48.008 301.986 47.096 301.25 45.912C300.546 44.728 300.194 43.24 300.194 41.448H307.01C307.01 42.216 307.154 42.824 307.442 43.272C307.762 43.72 308.322 44.056 309.122 44.28C309.922 44.504 311.074 44.616 312.578 44.616C314.658 44.616 316.098 44.36 316.898 43.848C317.698 43.368 318.098 42.664 318.098 41.736C318.098 40.968 317.794 40.36 317.186 39.912C316.578 39.464 315.666 39.24 314.45 39.24H310.754C308.13 39.24 306.162 38.776 304.85 37.848C303.57 36.888 302.93 35.672 302.93 34.2C302.93 33.272 303.202 32.376 303.746 31.512C304.29 30.616 305.026 29.88 305.954 29.304C304.354 28.44 303.186 27.432 302.45 26.28C301.746 25.096 301.394 23.672 301.394 22.008C301.394 19.16 302.418 16.904 304.466 15.24C306.514 13.544 309.218 12.696 312.578 12.696C315.138 12.76 317.298 12.504 319.058 11.928C320.85 11.352 322.69 10.504 324.578 9.38399L326.354 15ZM312.77 17.688C311.586 17.688 310.642 18.072 309.938 18.84C309.266 19.576 308.93 20.6 308.93 21.912C308.93 23.288 309.266 24.36 309.938 25.128C310.642 25.864 311.586 26.232 312.77 26.232C314.018 26.232 314.962 25.864 315.602 25.128C316.274 24.392 316.61 23.288 316.61 21.816C316.61 19.064 315.33 17.688 312.77 17.688Z" fill="#292929"/>
<path d="M350.355 39H343.779L343.443 35.784C341.587 38.472 339.011 39.816 335.715 39.816C333.379 39.816 331.603 39.112 330.387 37.704C329.203 36.296 328.611 34.328 328.611 31.8V13.512H336.195V30.84C336.195 32.088 336.387 32.968 336.771 33.48C337.187 33.96 337.811 34.2 338.643 34.2C340.243 34.2 341.619 33.208 342.771 31.224V13.512H350.355V39Z" fill="#292929"/>
<path d="M378.544 25.752C378.544 26.808 378.496 27.72 378.4 28.488H362.608C362.864 30.632 363.472 32.136 364.432 33C365.392 33.864 366.72 34.296 368.416 34.296C369.44 34.296 370.432 34.12 371.392 33.768C372.352 33.384 373.392 32.808 374.512 32.04L377.632 36.264C374.656 38.632 371.344 39.816 367.696 39.816C363.568 39.816 360.4 38.6 358.192 36.168C355.984 33.736 354.88 30.472 354.88 26.376C354.88 23.784 355.344 21.464 356.272 19.416C357.2 17.336 358.56 15.704 360.352 14.52C362.144 13.304 364.288 12.696 366.784 12.696C370.464 12.696 373.344 13.848 375.424 16.152C377.504 18.456 378.544 21.656 378.544 25.752ZM371.104 23.592C371.04 19.688 369.664 17.736 366.976 17.736C365.664 17.736 364.64 18.216 363.904 19.176C363.2 20.136 362.768 21.72 362.608 23.928H371.104V23.592Z" fill="#292929"/>
<path d="M391.78 12.696C393.604 12.696 395.316 12.968 396.916 13.512C398.516 14.056 399.924 14.824 401.14 15.816L398.356 20.088C396.276 18.776 394.18 18.12 392.068 18.12C391.076 18.12 390.308 18.296 389.764 18.648C389.252 18.968 388.996 19.432 388.996 20.04C388.996 20.52 389.108 20.92 389.332 21.24C389.588 21.528 390.084 21.832 390.82 22.152C391.556 22.472 392.692 22.856 394.228 23.304C396.884 24.072 398.852 25.08 400.132 26.328C401.444 27.544 402.1 29.24 402.1 31.416C402.1 33.144 401.604 34.648 400.612 35.928C399.62 37.176 398.26 38.136 396.532 38.808C394.804 39.48 392.884 39.816 390.772 39.816C388.628 39.816 386.628 39.48 384.772 38.808C382.948 38.136 381.396 37.208 380.116 36.024L383.812 31.896C385.956 33.56 388.212 34.392 390.58 34.392C391.732 34.392 392.628 34.184 393.268 33.768C393.94 33.352 394.276 32.76 394.276 31.992C394.276 31.384 394.148 30.904 393.892 30.552C393.636 30.2 393.14 29.88 392.404 29.592C391.668 29.272 390.5 28.888 388.9 28.44C386.372 27.704 384.484 26.68 383.236 25.368C381.988 24.056 381.364 22.424 381.364 20.472C381.364 19 381.78 17.688 382.612 16.536C383.476 15.352 384.692 14.424 386.26 13.752C387.86 13.048 389.7 12.696 391.78 12.696Z" fill="#292929"/>
</svg>
